C:\GBW_MyPrograms\KinderuniversiteitApp\Resultaten\New_group\test4_v1.mot
version=1
nRows=10
nColumns=31
inDegrees=yes
endheader
                time	         pelvis_tilt	           pelvis_tx	           pelvis_ty	       hip_flexion_r	        knee_angle_r	       ankle_angle_r	       hip_flexion_l	        knee_angle_l	       ankle_angle_l	    lumbar_extension	          arm_flex_r	          arm_flex_l	hamstrings_r/activation	bifemsh_r/activation	glut_max_r/activation	iliopsoas_r/activation	rect_fem_r/activation	  vasti_r/activation	gastroc_r/activation	 soleus_r/activation	tib_ant_r/activation	hamstrings_l/activation	bifemsh_l/activation	glut_max_l/activation	iliopsoas_l/activation	rect_fem_l/activation	  vasti_l/activation	gastroc_l/activation	 soleus_l/activation	tib_ant_l/activation	
          0.38944262	          0.09921154	          0.51795868	          1.16753535	         -8.77064942	        -23.21045505	        -20.17019136	        -10.56583350	          9.26203299	        -13.53927614	         -2.49415752	         -6.43026233	         -6.43442960	          0.51153214	          0.72148568	          0.30687199	          0.72710492	          0.46540524	          0.22018947	          0.51152451	          0.29078904	          0.79867907	          0.67728688	          0.56802913	          0.56927561	          0.40983825	          0.45932489	          0.61882099	          0.67081020	          0.56441643	          0.77409458	
          0.39723147	          0.10387020	          0.52789181	          1.16935790	         -7.32458694	        -24.69240249	        -19.16671000	        -12.28897755	         10.72881327	        -14.53454015	         -2.53945957	         -6.36829701	         -6.37267908	          0.49899907	          0.71546024	          0.33284390	          0.72258829	          0.48542183	          0.21638169	          0.50154275	          0.26915269	          0.80120153	          0.70124199	          0.61952319	          0.53946213	          0.49883164	          0.42025539	          0.58278250	          0.73777221	          0.64747543	          0.73979933	
          0.40502032	          0.13120864	          0.53730242	          1.17074370	         -5.81965566	        -26.29179499	        -18.25715632	        -13.42664382	         10.94167890	        -14.73468392	         -2.66421941	         -6.23644067	         -6.24102280	          0.46359128	          0.72135846	          0.31492821	          0.74678502	          0.54969633	          0.21114765	          0.49090266	          0.24798070	          0.80412595	          0.69498771	          0.68367953	          0.51155203	          0.64283252	          0.39016879	          0.55264973	          0.77393535	          0.68312170	          0.67596517	
          0.41280917	          0.15796296	          0.54622406	          1.17173016	         -4.25377248	        -27.95099308	        -17.41214899	        -14.02200755	         10.36634058	        -14.65411745	         -2.83752135	         -6.04396309	         -6.04872885	          0.43524960	          0.72510170	          0.29640221	          0.75026747	          0.59894714	          0.20503155	          0.47964331	          0.22947381	          0.80636611	          0.69707515	          0.73844561	          0.48037198	          0.74026109	          0.36347335	          0.52159791	          0.77776939	          0.67064296	          0.63157880	
          0.42059803	          0.17749792	          0.55479702	          1.17234689	         -2.65362222	        -29.60166796	        -16.58581864	        -14.26594999	          9.67189955	        -14.74056512	         -3.03722858	         -5.80997971	         -5.81491164	          0.40371597	          0.72990561	          0.27291916	          0.76320665	          0.64805388	          0.19460264	          0.46670440	          0.21237290	          0.81108206	          0.68013070	          0.76989176	          0.44317976	          0.80398808	          0.35005641	          0.49151560	          0.76763367	          0.65862246	          0.58865331	
          0.42838688	          0.19065550	          0.56313409	          1.17266793	         -1.04086155	        -31.19774028	        -15.77903646	        -14.26026768	          8.92087071	        -15.13881536	         -3.25275341	         -5.54854090	         -5.55362018	          0.37010178	          0.73520665	          0.25766451	          0.77371058	          0.68451297	          0.18538563	          0.45317218	          0.19675371	          0.81432859	          0.67084312	          0.78069676	          0.41042912	          0.84522910	          0.33586025	          0.47116115	          0.74608456	          0.65658440	          0.54711761	
          0.43617573	          0.19779624	          0.57131436	          1.17277809	          0.57372723	        -32.71308769	        -14.98292816	        -14.02823760	          7.77998075	        -15.22178944	         -3.47643093	         -5.26955065	         -5.27475708	          0.34666844	          0.73459603	          0.24575556	          0.77718499	          0.71448604	          0.18002973	          0.43840819	          0.18215007	          0.81901537	          0.66092200	          0.77510559	          0.38381057	          0.84540407	          0.31688906	          0.45229127	          0.71125365	          0.63866343	          0.52409005	
          0.44396458	          0.19673174	          0.57939956	          1.17269999	          2.18746762	        -34.13733929	        -14.16752590	        -13.62926870	          6.31362088	        -14.96211241	         -3.69955959	         -4.98126787	         -4.98658010	          0.31889507	          0.73172176	          0.22877139	          0.78439001	          0.73898197	          0.17568170	          0.42312409	          0.16851091	          0.82357351	          0.63607883	          0.75265242	          0.35991258	          0.81244204	          0.30656833	          0.44357772	          0.67441736	          0.63807589	          0.49043921	
          0.45175344	          0.18862252	          0.58744134	          1.17246327	          3.79652493	        -35.46330423	        -13.33999164	        -13.12614854	          4.65879780	        -14.56481420	         -3.91842292	         -4.68997690	         -4.69537298	          0.29469967	          0.72553669	          0.21759899	          0.78628404	          0.75380575	          0.17551859	          0.40767548	          0.15614014	          0.82706282	          0.60606124	          0.71998019	          0.34876161	          0.75940754	          0.36667008	          0.44804903	          0.63507880	          0.63863568	          0.45784731	
          0.45954229	          0.17128351	          0.59548550	          1.17209530	          5.39956596	        -36.68113786	        -12.50555399	        -12.56441636	          2.91331285	        -14.13791177	         -4.12601640	         -4.40192012	         -4.40737772	          0.27431380	          0.71888678	          0.20784310	          0.78814463	          0.76261114	          0.17927135	          0.39199179	          0.14472200	          0.83058748	          0.56962751	          0.68227759	          0.36315511	          0.70096056	          0.46264926	          0.46505349	          0.59427931	          0.63228959	          0.42768503	
